{"asset":{"generator":"3D Builder","version":"2.0"},"scene":0,"scenes":[{"nodes":[0,4,7,10]}],"nodes":[{"children":[1,2,3]},{"mesh":0,"matrix":[0.692711591720581,0,0,0,0,-8.2577656712601311E-8,-0.69271153211593628,0,0,0.69271153211593628,-8.2577656712601311E-8,0,756.48138427734375,76.029693603515625,53.409076690673828,1]},{"mesh":1,"matrix":[0.692711591720581,0,0,0,0,-8.2577656712601311E-8,-0.69271153211593628,0,0,0.69271153211593628,-8.2577656712601311E-8,0,756.48138427734375,76.029693603515625,53.409076690673828,1]},{"mesh":2,"matrix":[0.692711591720581,0,0,0,0,-8.2577656712601311E-8,-0.69271153211593628,0,0,0.69271153211593628,-8.2577656712601311E-8,0,756.48138427734375,76.029693603515625,53.409076690673828,1]},{"children":[5,6]},{"mesh":3,"matrix":[0.64745259284973145,0,0,0,0,-7.7182363611427718E-8,-0.64745253324508667,0,0,0.64745253324508667,-7.7182363611427718E-8,0,223.51695251464844,71.062660217285156,46.403289794921875,1]},{"mesh":4,"matrix":[0.64745259284973145,0,0,0,0,-7.7182363611427718E-8,-0.64745253324508667,0,0,0.64745253324508667,-7.7182363611427718E-8,0,223.51695251464844,71.062660217285156,46.403289794921875,1]},{"children":[8,9]},{"mesh":5,"matrix":[1,0,0,0,0,-1.1920928955078125E-7,-0.99999988079071045,0,0,0.99999988079071045,-1.1920928955078125E-7,0,-1127.705078125,109.75647735595703,50.116123199462891,1]},{"mesh":6,"matrix":[1,0,0,0,0,-1.1920928955078125E-7,-0.99999988079071045,0,0,0.99999988079071045,-1.1920928955078125E-7,0,-1127.705078125,109.75647735595703,50.116123199462891,1]},{"children":[11,12]},{"mesh":7,"matrix":[26.271650314331055,0,0,0,0,-3.1318247692979639E-6,-26.271646499633789,0,0,26.271646499633789,-3.1318247692979639E-6,0,-854.9029541015625,73.261749267578125,50.125762939453125,1]},{"mesh":8,"matrix":[26.271650314331055,0,0,0,0,-3.1318247692979639E-6,-26.271646499633789,0,0,26.271646499633789,-3.1318247692979639E-6,0,-854.9029541015625,73.261749267578125,50.125762939453125,1]}],"meshes":[{"primitives":[{"attributes":{"POSITION":0},"mode":4,"indices":1,"material":0}]},{"primitives":[{"attributes":{"POSITION":2},"mode":4,"indices":3,"material":0}]},{"primitives":[{"attributes":{"POSITION":4},"mode":4,"indices":5,"material":0}]},{"primitives":[{"attributes":{"POSITION":6},"mode":4,"indices":7,"material":0}]},{"primitives":[{"attributes":{"POSITION":8},"mode":4,"indices":9,"material":0}]},{"primitives":[{"attributes":{"POSITION":10},"mode":4,"indices":11,"material":0}]},{"primitives":[{"attributes":{"POSITION":12},"mode":4,"indices":13,"material":0}]},{"primitives":[{"attributes":{"POSITION":14},"mode":4,"indices":15,"material":0}]},{"primitives":[{"attributes":{"POSITION":16},"mode":4,"indices":17,"material":0}]}],"materials":[{"name":"DefaultMaterial","pbrMetallicRoughness":{"baseColorFactor":[0.21223072707653046,0.21223072707653046,0.21223072707653046,1],"metallicFactor":0,"roughnessFactor":0},"alphaMode":"OPAQUE"}],"accessors":[{"bufferView":0,"byteOffset":0,"count":192,"componentType":5126,"type":"VEC3","min":[-1075.8935546875,52.927314758300781,-109.75646209716797],"max":[-1044.603271484375,88.1561050415039,-69.756462097167969]},{"bufferView":1,"byteOffset":0,"count":1152,"componentType":5125,"type":"SCALAR"},{"bufferView":2,"byteOffset":0,"count":3648,"componentType":5126,"type":"VEC3","min":[-1106.827880859375,16.688898086547852,-109.75648498535156],"max":[-995.70440673828125,123.72756195068359,-69.756454467773438]},{"bufferView":3,"byteOffset":0,"count":21888,"componentType":5125,"type":"SCALAR"},{"bufferView":4,"byteOffset":0,"count":5785,"componentType":5126,"type":"VEC3","min":[-1103.5911865234375,19.6875057220459,-109.756591796875],"max":[-998.6934814453125,120.72779846191406,-69.756477355957031]},{"bufferView":5,"byteOffset":0,"count":34782,"componentType":5125,"type":"SCALAR"},{"bufferView":6,"byteOffset":0,"count":6080,"componentType":5126,"type":"VEC3","min":[-635.88433837890625,16.689964294433594,-109.75732421875],"max":[-539.82733154296875,121.55596923828125,-69.755752563476562]},{"bufferView":7,"byteOffset":0,"count":36480,"componentType":5125,"type":"SCALAR"},{"bufferView":8,"byteOffset":0,"count":9271,"componentType":5126,"type":"VEC3","min":[-632.87799072265625,19.688203811645508,-109.75659942626953],"max":[-543.27215576171875,118.55599975585937,-69.756385803222656]},{"bufferView":9,"byteOffset":0,"count":55746,"componentType":5125,"type":"SCALAR"},{"bufferView":10,"byteOffset":0,"count":8882,"componentType":5126,"type":"VEC3","min":[830.8612060546875,14.518806457519531,-109.75648498535156],"max":[905.771728515625,123.75459289550781,-69.739982604980469]},{"bufferView":11,"byteOffset":0,"count":53292,"componentType":5125,"type":"SCALAR"},{"bufferView":12,"byteOffset":0,"count":2786,"componentType":5126,"type":"VEC3","min":[833.870849609375,17.519004821777344,-109.75648498535156],"max":[902.72528076171875,120.75798797607422,-69.756477355957031]},{"bufferView":13,"byteOffset":0,"count":16728,"componentType":5125,"type":"SCALAR"},{"bufferView":14,"byteOffset":0,"count":823,"componentType":5126,"type":"VEC3","min":[28.788570404052734,0.50724095106124878,-2.7886238098144531],"max":[31.42204475402832,3.0403323173522949,-1.7817168235778809]},{"bufferView":15,"byteOffset":0,"count":4950,"componentType":5125,"type":"SCALAR"},{"bufferView":16,"byteOffset":0,"count":845,"componentType":5126,"type":"VEC3","min":[28.684074401855469,0.40345650911331177,-2.7886238098144531],"max":[31.5252685546875,3.1419322490692139,-1.7726237773895264]},{"bufferView":17,"byteOffset":0,"count":5076,"componentType":5125,"type":"SCALAR"}],"bufferViews":[{"buffer":0,"byteOffset":0,"byteLength":2304,"byteStride":12,"target":34962},{"buffer":0,"byteOffset":2304,"byteLength":4608,"target":34963},{"buffer":0,"byteOffset":6912,"byteLength":43776,"byteStride":12,"target":34962},{"buffer":0,"byteOffset":50688,"byteLength":87552,"target":34963},{"buffer":0,"byteOffset":138240,"byteLength":69420,"byteStride":12,"target":34962},{"buffer":0,"byteOffset":207660,"byteLength":139128,"target":34963},{"buffer":0,"byteOffset":346788,"byteLength":72960,"byteStride":12,"target":34962},{"buffer":0,"byteOffset":419748,"byteLength":145920,"target":34963},{"buffer":0,"byteOffset":565668,"byteLength":111252,"byteStride":12,"target":34962},{"buffer":0,"byteOffset":676920,"byteLength":222984,"target":34963},{"buffer":0,"byteOffset":899904,"byteLength":106584,"byteStride":12,"target":34962},{"buffer":0,"byteOffset":1006488,"byteLength":213168,"target":34963},{"buffer":0,"byteOffset":1219656,"byteLength":33432,"byteStride":12,"target":34962},{"buffer":0,"byteOffset":1253088,"byteLength":66912,"target":34963},{"buffer":0,"byteOffset":1320000,"byteLength":9876,"byteStride":12,"target":34962},{"buffer":0,"byteOffset":1329876,"byteLength":19800,"target":34963},{"buffer":0,"byteOffset":1349676,"byteLength":10140,"byteStride":12,"target":34962},{"buffer":0,"byteOffset":1359816,"byteLength":20304,"target":34963}],"buffers":[{"byteLength":1380120,"uri":"Letter A.bin"}]}