{"asset":{"generator":"3D Builder","version":"2.0"},"scene":0,"scenes":[{"nodes":[0,1,2,3]}],"nodes":[{"mesh":0,"matrix":[-4.76837556107057E-7,-0.0081751439720392227,-0.99996733665466309,0,-0.99999958276748657,1.5417440124565474E-7,1.7918434878083644E-6,0,1.5132145847474021E-7,0.99997246265411377,-0.0081750443205237389,0,0.12728786468505859,0.00039385558920912445,0.091810502111911774,1]},{"mesh":1,"matrix":[-0.040044523775577545,-0.018983660265803337,-0.99901837110519409,0,-0.999198317527771,5.1129134703842283E-8,0.040050983428955078,0,-0.00075945875141769648,0.99982535839080811,-0.018968299031257629,0,0.12249132245779037,-0.0013716561952605844,0.028571302071213722,1]},{"mesh":2,"matrix":[-4.76837556107057E-7,-0.0081751439720392227,-0.99996733665466309,0,-0.99999958276748657,1.5417440124565474E-7,1.7918434878083644E-6,0,1.5132145847474021E-7,0.99997246265411377,-0.0081750443205237389,0,0.1178252324461937,0.0015486455522477627,-0.10665490478277206,1]},{"mesh":3,"matrix":[0.016695247963070869,7.1236271992347611E-8,-0.99985957145690918,0,-0.99985969066619873,1.7785231420930359E-7,-0.016695223748683929,0,1.7663720086602552E-7,0.99999988079071045,7.4194844046360231E-8,0,0.12183064222335815,0.0022246188018471003,-0.036306969821453094,1]}],"meshes":[{"primitives":[{"attributes":{"POSITION":0,"COLOR_0":1},"mode":4,"indices":2}]},{"primitives":[{"attributes":{"POSITION":3,"COLOR_0":4},"mode":4,"indices":5}]},{"primitives":[{"attributes":{"POSITION":6,"COLOR_0":7},"mode":4,"indices":8}]},{"primitives":[{"attributes":{"POSITION":9,"COLOR_0":10},"mode":4,"indices":11}]}],"accessors":[{"bufferView":0,"byteOffset":0,"count":1496,"componentType":5126,"type":"VEC3","min":[-0.023392438888549805,-0.011221116408705711,0.0005375468754209578],"max":[0.023392438888549805,0.011221103370189667,0.076955437660217285]},{"bufferView":1,"byteOffset":0,"count":1496,"componentType":5121,"type":"VEC4","normalized":true},{"bufferView":2,"byteOffset":0,"count":8964,"componentType":5125,"type":"SCALAR"},{"bufferView":3,"byteOffset":0,"count":930,"componentType":5126,"type":"VEC3","min":[-0.027318954467773438,-0.010098959319293499,-6.3948843465551938E-16],"max":[0.025753326714038849,0.010098950006067753,0.0826985239982605]},{"bufferView":4,"byteOffset":0,"count":930,"componentType":5121,"type":"VEC4","normalized":true},{"bufferView":5,"byteOffset":0,"count":5568,"componentType":5125,"type":"SCALAR"},{"bufferView":6,"byteOffset":0,"count":712,"componentType":5126,"type":"VEC3","min":[-0.0327402763068676,-0.011014245450496674,0.00022124047973193228],"max":[0.0327402763068676,0.011014223098754883,0.076721042394638062]},{"bufferView":7,"byteOffset":0,"count":712,"componentType":5121,"type":"VEC4","normalized":true},{"bufferView":8,"byteOffset":0,"count":4272,"componentType":5125,"type":"SCALAR"},{"bufferView":9,"byteOffset":0,"count":528,"componentType":5126,"type":"VEC3","min":[-0.0314287431538105,-0.011097878217697144,0.0002834379265550524],"max":[0.0314287431538105,0.011097860522568226,0.075115211308002472]},{"bufferView":10,"byteOffset":0,"count":528,"componentType":5121,"type":"VEC4","normalized":true},{"bufferView":11,"byteOffset":0,"count":3156,"componentType":5125,"type":"SCALAR"}],"bufferViews":[{"buffer":0,"byteOffset":0,"byteLength":17952,"byteStride":12,"target":34962},{"buffer":0,"byteOffset":17952,"byteLength":5984,"byteStride":4,"target":34962},{"buffer":0,"byteOffset":23936,"byteLength":35856,"target":34963},{"buffer":0,"byteOffset":59792,"byteLength":11160,"byteStride":12,"target":34962},{"buffer":0,"byteOffset":70952,"byteLength":3720,"byteStride":4,"target":34962},{"buffer":0,"byteOffset":74672,"byteLength":22272,"target":34963},{"buffer":0,"byteOffset":96944,"byteLength":8544,"byteStride":12,"target":34962},{"buffer":0,"byteOffset":105488,"byteLength":2848,"byteStride":4,"target":34962},{"buffer":0,"byteOffset":108336,"byteLength":17088,"target":34963},{"buffer":0,"byteOffset":125424,"byteLength":6336,"byteStride":12,"target":34962},{"buffer":0,"byteOffset":131760,"byteLength":2112,"byteStride":4,"target":34962},{"buffer":0,"byteOffset":133872,"byteLength":12624,"target":34963}],"buffers":[{"byteLength":146496,"uri":"scene.bin"}]}