{"asset":{"generator":"3D Builder","version":"2.0"},"scene":0,"scenes":[{"nodes":[0,1,2,3]}],"nodes":[{"mesh":0,"matrix":[1,0,0,0,0,-1.1920928955078125E-7,-0.99999988079071045,0,0,0.99999988079071045,-1.1920928955078125E-7,0,0.0055222962982952595,-0.00045563039020635188,-0.00846617016941309,1]},{"mesh":1,"matrix":[1,0,0,0,0,-1.1920928955078125E-7,-0.99999988079071045,0,0,0.99999988079071045,-1.1920928955078125E-7,0,0.1399531364440918,-9.3649441623711027E-6,-0.011221111752092838,1]},{"mesh":2,"matrix":[1,0,0,0,0,-1.1920928955078125E-7,-0.99999988079071045,0,0,0.99999988079071045,-1.1920928955078125E-7,0,0.064830616116523743,-8.0654583012318426E-10,-0.0073440130800008774,1]},{"mesh":3,"matrix":[1,0,0,0,0,-1.1920928955078125E-7,-0.99999988079071045,0,0,0.99999988079071045,-1.1920928955078125E-7,0,0.2036544531583786,-0.00022124109091237187,-0.0064134141430258751,1]}],"meshes":[{"primitives":[{"attributes":{"POSITION":0,"TEXCOORD_0":1},"mode":4,"indices":2,"material":0}]},{"primitives":[{"attributes":{"POSITION":3,"TEXCOORD_0":4},"mode":4,"indices":5,"material":1}]},{"primitives":[{"attributes":{"POSITION":6,"TEXCOORD_0":7},"mode":4,"indices":8,"material":2}]},{"primitives":[{"attributes":{"POSITION":9,"TEXCOORD_0":10},"mode":4,"indices":11,"material":3}]}],"materials":[{"pbrMetallicRoughness":{"baseColorFactor":[1,1,1,1],"metallicFactor":1,"roughnessFactor":1,"baseColorTexture":{"index":0,"texCoord":0},"metallicRoughnessTexture":{"index":1,"texCoord":0}},"alphaMode":"OPAQUE"},{"pbrMetallicRoughness":{"baseColorFactor":[1,1,1,1],"metallicFactor":1,"roughnessFactor":1,"baseColorTexture":{"index":2,"texCoord":0},"metallicRoughnessTexture":{"index":3,"texCoord":0}},"alphaMode":"OPAQUE"},{"pbrMetallicRoughness":{"baseColorFactor":[1,1,1,1],"metallicFactor":1,"roughnessFactor":1,"baseColorTexture":{"index":4,"texCoord":0},"metallicRoughnessTexture":{"index":5,"texCoord":0}},"alphaMode":"OPAQUE"},{"pbrMetallicRoughness":{"baseColorFactor":[1,1,1,1],"metallicFactor":1,"roughnessFactor":1,"baseColorTexture":{"index":6,"texCoord":0},"metallicRoughnessTexture":{"index":7,"texCoord":0}},"alphaMode":"OPAQUE"}],"textures":[{"source":0,"sampler":0},{"source":1,"sampler":0},{"source":2,"sampler":0},{"source":3,"sampler":0},{"source":4,"sampler":0},{"source":5,"sampler":0},{"source":6,"sampler":0},{"source":7,"sampler":0}],"images":[{"uri":"2295460200_1024x1024_6195987693227547908.png"},{"uri":"2313249015_1024x1024_17319628118832143767.png"},{"uri":"3725488530_1024x1024_17026833529806663332.png"},{"uri":"3743277345_1024x1024_17618312742380616759.png"},{"uri":"862131913_1024x1024_1535343169432686052.png"},{"uri":"879920728_1024x1024_18213029355133818487.png"},{"uri":"2057492381_1024x1024_12282369981943911396.png"},{"uri":"s.png"}],"samplers":[{"magFilter":9729,"wrapS":10497,"wrapT":10497}],"accessors":[{"bufferView":0,"byteOffset":0,"count":1780,"componentType":5126,"type":"VEC3","min":[-0.023392438888549805,-0.011221116408705711,0.0005375468754209578],"max":[0.023392438888549805,0.011221103370189667,0.076955437660217285]},{"bufferView":1,"byteOffset":0,"count":1780,"componentType":5126,"type":"VEC2"},{"bufferView":2,"byteOffset":0,"count":8964,"componentType":5125,"type":"SCALAR"},{"bufferView":3,"byteOffset":0,"count":624,"componentType":5126,"type":"VEC3","min":[-0.043250579386949539,-0.015821943059563637,9.3637900135945529E-6],"max":[0.043250579386949539,0.015821933746337891,0.080453194677829742]},{"bufferView":4,"byteOffset":0,"count":624,"componentType":5126,"type":"VEC2"},{"bufferView":5,"byteOffset":0,"count":3084,"componentType":5125,"type":"SCALAR"},{"bufferView":6,"byteOffset":0,"count":930,"componentType":5126,"type":"VEC3","min":[-0.027318954467773438,-0.010098959319293499,-6.3948843465551938E-16],"max":[0.025753326714038849,0.010098950006067753,0.0826985239982605]},{"bufferView":7,"byteOffset":0,"count":930,"componentType":5126,"type":"VEC2"},{"bufferView":8,"byteOffset":0,"count":5568,"componentType":5125,"type":"SCALAR"},{"bufferView":9,"byteOffset":0,"count":852,"componentType":5126,"type":"VEC3","min":[-0.0327402763068676,-0.011014245450496674,0.00022124047973193228],"max":[0.0327402763068676,0.011014223098754883,0.076721042394638062]},{"bufferView":10,"byteOffset":0,"count":852,"componentType":5126,"type":"VEC2"},{"bufferView":11,"byteOffset":0,"count":4272,"componentType":5125,"type":"SCALAR"}],"bufferViews":[{"buffer":0,"byteOffset":0,"byteLength":21360,"byteStride":12,"target":34962},{"buffer":0,"byteOffset":21360,"byteLength":14240,"byteStride":8,"target":34962},{"buffer":0,"byteOffset":35600,"byteLength":35856,"target":34963},{"buffer":0,"byteOffset":71456,"byteLength":7488,"byteStride":12,"target":34962},{"buffer":0,"byteOffset":78944,"byteLength":4992,"byteStride":8,"target":34962},{"buffer":0,"byteOffset":83936,"byteLength":12336,"target":34963},{"buffer":0,"byteOffset":96272,"byteLength":11160,"byteStride":12,"target":34962},{"buffer":0,"byteOffset":107432,"byteLength":7440,"byteStride":8,"target":34962},{"buffer":0,"byteOffset":114872,"byteLength":22272,"target":34963},{"buffer":0,"byteOffset":137144,"byteLength":10224,"byteStride":12,"target":34962},{"buffer":0,"byteOffset":147368,"byteLength":6816,"byteStride":8,"target":34962},{"buffer":0,"byteOffset":154184,"byteLength":17088,"target":34963}],"buffers":[{"byteLength":171272,"uri":"S.bin"}]}